# xmcd
#
# Track frame offsets:
#	149
#	18583
#	33943
#	50556
#	66980
#	86812
#	109405
#	129363
#	148875
#	166440
#	183581
#	200965
#	219727
#	236994
#	258526
#	279013
#	295874
#	325525
#
# Disc length: 4795 seconds
#
# Revision: 0
# Processed by: cddbd v1.5.1PL0 Copyright (c) Steve Scherf et al.
# Submitted via: dBpowerAMP V4.0
#
DISCID=2012ba12
DTITLE=Various Artist - Black and Beatiful
DYEAR=1900
DGENRE=
TTITLE0=JA RULE FEAT. ASHANTI- ALWAYS ON TIME
TTITLE1=MARY J. BLIGEFEAT COMMON - DANCE FOR ME 
TTITLE2=NIVEA FEAT. PUSHA T. - RUN AWAY (I WANNA BE WITH YOU)
TTITLE3=BELL BIV DEVOE - DA HOT SH
TTITLE4=INDIA ARIE - NATURE
TTITLE5=R. KELLY A - WOMENS THREAT
TTITLE6=GINUWINE - DIFFERENCES
TTITLE7=BLACKSTREET FEAT. QUENN PEN - ON THE FLOOR
TTITLE8=JOE FAT . PETEY PABLO - LETS STAY HOME TONIGHT
TTITLE9=ERICK SERMON FEAT . MARVIN GAYE - I'M HOT
TTITLE10=CHRISTINA MILAN - AM TO PM
TTITLE11=RAHEEDA FEAT. SLIM OF 112 - GET IT ON
TTITLE12=JONELL FEAT NEXT - ANYTHING
TTITLE13=JAHEIM FEAT NEXT - ANYTHING
TTITLE14=DMX FEAT STEPHANIE MILLS - WHEN I'M NOTHING
TTITLE15=J-LUV FEAT KOOL SAVAS, EKO and CUTTY - D.U.T
TTITLE16=LINDA CARRIERE - THE LETTER
TTITLE17=DATA
EXTD=
EXTT0=
EXTT1=
EXTT2=
EXTT3=
EXTT4=
EXTT5=
EXTT6=
EXTT7=
EXTT8=
EXTT9=
EXTT10=
EXTT11=
EXTT12=
EXTT13=
EXTT14=
EXTT15=
EXTT16=
EXTT17=
PLAYORDER=
